<?xml version="1.0" encoding="UTF-8" standalone="no"?>
<svg
   width="64"
   height="64"
   version="1.1"
   viewBox="0 0 1 1"
   id="svg1"
   sodipodi:docname="icon.svg"
   inkscape:version="1.4 (e7c3feb100, 2024-10-09)"
   inkscape:export-filename="icon_512x512.png"
   inkscape:export-xdpi="768"
   inkscape:export-ydpi="768"
   xmlns:inkscape="http://www.inkscape.org/namespaces/inkscape"
   xmlns:sodipodi="http://sodipodi.sourceforge.net/DTD/sodipodi-0.dtd"
   xmlns="http://www.w3.org/2000/svg"
   xmlns:svg="http://www.w3.org/2000/svg">
  <defs
     id="defs1" />
  <sodipodi:namedview
     id="namedview1"
     pagecolor="#505050"
     bordercolor="#ffffff"
     borderopacity="1"
     inkscape:showpageshadow="0"
     inkscape:pageopacity="0"
     inkscape:pagecheckerboard="1"
     inkscape:deskcolor="#d1d1d1"
     inkscape:zoom="6.890625"
     inkscape:cx="32"
     inkscape:cy="32"
     inkscape:window-width="1154"
     inkscape:window-height="720"
     inkscape:window-x="0"
     inkscape:window-y="0"
     inkscape:window-maximized="0"
     inkscape:current-layer="g1" />
  <rect
     style="fill:#073642;fill-rule:evenodd;stroke-width:0.015625;-inkscape-stroke:none;paint-order:markers fill stroke;fill-opacity:1"
     id="rect2"
     width="1"
     height="1"
     x="0"
     y="0" />
  <g
     transform="matrix(.876 0 0 .873 .0616 .061)"
     fill="none"
     stroke="#657b83"
     stroke-width=".0536"
     id="g1">
    <path
       d="m0.49 0.0881-0.465 0.397 0.141 1.83e-4v0.357c0 0.0219 0.0176 0.0396 0.0396 0.0396h0.332v-0.23c0-0.0219 0.0176-0.0396 0.0396-0.0396h0.0795c0.0219 0 0.0396 0.0176 0.0396 0.0396v0.23h0.0898c0.0219 0 0.0396-0.0176 0.0396-0.0396v-0.356l0.142 1.83e-4 -0.192-0.16v-0.19c0-0.0139-0.0112-0.0251-0.025-0.0251h-0.0963c-0.0139 0-0.0251 0.0112-0.0251 0.0251v0.0679z"
       fill-rule="evenodd"
       style="paint-order:fill markers stroke;stroke:#268bd2;stroke-opacity:1"
       id="path1" />
    <rect
       x=".267"
       y=".485"
       width=".159"
       height=".152"
       ry=".0357"
       style="paint-order:markers fill stroke;stroke:#268bd2;stroke-opacity:1"
       id="rect1" />
  </g>
</svg>
