{"accessors":[{"bufferView":0,"byteOffset":0,"componentType":5126,"count":40,"max":[0.68,0.9,-0.35000000000000006],"min":[0.0,-3.885780586188048e-17,-0.35000000000000006],"type":"VEC3"},{"bufferView":0,"byteOffset":480,"componentType":5126,"count":8,"max":[0.68,0.0,0.0],"min":[0.0,-3.885780586188048e-17,-0.35000000000000006],"type":"VEC3"},{"bufferView":0,"byteOffset":576,"componentType":5126,"count":4,"max":[0.02,0.08,-0.015],"min":[0.02,-3.885780586188048e-17,-0.35000000000000006],"type":"VEC3"},{"bufferView":0,"byteOffset":624,"componentType":5126,"count":4,"max":[0.66,0.08,-0.015],"min":[0.02,0.07999999999999992,-0.35000000000000006],"type":"VEC3"},{"bufferView":0,"byteOffset":672,"componentType":5126,"count":4,"max":[0.66,0.08,-0.015],"min":[0.66,-3.885780586188048e-17,-0.35000000000000006],"type":"VEC3"},{"bufferView":0,"byteOffset":720,"componentType":5126,"count":4,"max":[0.68,0.9,0.0],"min":[0.68,0.0,-0.35000000000000006],"type":"VEC3"},{"bufferView":0,"byteOffset":768,"componentType":5126,"count":12,"max":[0.68,0.9,0.0],"min":[0.0,0.9,-0.35000000000000006],"type":"VEC3"},{"bufferView":0,"byteOffset":912,"componentType":5126,"count":4,"max":[0.66,0.9,-0.015],"min":[0.66,0.7599999999999999,-0.35000000000000006],"type":"VEC3"},{"bufferView":0,"byteOffset":960,"componentType":5126,"count":4,"max":[0.66,0.76,-0.015],"min":[0.35000000000000006,0.7599999999999999,-0.35000000000000006],"type":"VEC3"},{"bufferView":0,"byteOffset":1008,"componentType":5126,"count":4,"max":[0.35000000000000006,0.9,-0.015],"min":[0.35000000000000006,0.7599999999999999,-0.35000000000000006],"type":"VEC3"},{"bufferView":0,"byteOffset":1056,"componentType":5126,"count":4,"max":[0.33,0.9,-0.015],"min":[0.33,0.7599999999999999,-0.35000000000000006],"type":"VEC3"},{"bufferView":0,"byteOffset":1104,"componentType":5126,"count":4,"max":[0.33,0.76,-0.015],"min":[0.02,0.7599999999999999,-0.35000000000000006],"type":"VEC3"},{"bufferView":0,"byteOffset":1152,"componentType":5126,"count":4,"max":[0.02,0.9,-0.015],"min":[0.02,0.7599999999999999,-0.35000000000000006],"type":"VEC3"},{"bufferView":0,"byteOffset":1200,"componentType":5126,"count":4,"max":[0.0,0.9,0.0],"min":[0.0,0.0,-0.35000000000000006],"type":"VEC3"},{"bufferView":0,"byteOffset":1248,"componentType":5126,"count":4,"max":[0.33,0.74,-0.015],"min":[0.02,0.7399999999999999,-0.35000000000000006],"type":"VEC3"},{"bufferView":0,"byteOffset":1296,"componentType":5126,"count":4,"max":[0.33,0.74,-0.015],"min":[0.33,0.5399999999999999,-0.35000000000000006],"type":"VEC3"},{"bufferView":0,"byteOffset":1344,"componentType":5126,"count":4,"max":[0.33,0.54,-0.015],"min":[0.02,0.5399999999999999,-0.35000000000000006],"type":"VEC3"},{"bufferView":0,"byteOffset":1392,"componentType":5126,"count":4,"max":[0.02,0.74,-0.015],"min":[0.02,0.5399999999999999,-0.35000000000000006],"type":"VEC3"},{"bufferView":0,"byteOffset":1440,"componentType":5126,"count":4,"max":[0.66,0.74,-0.015],"min":[0.35000000000000006,0.7399999999999999,-0.35000000000000006],"type":"VEC3"},{"bufferView":0,"byteOffset":1488,"componentType":5126,"count":4,"max":[0.66,0.74,-0.015],"min":[0.66,0.5399999999999999,-0.35000000000000006],"type":"VEC3"},{"bufferView":0,"byteOffset":1536,"componentType":5126,"count":4,"max":[0.66,0.54,-0.015],"min":[0.35000000000000006,0.5399999999999999,-0.35000000000000006],"type":"VEC3"},{"bufferView":0,"byteOffset":1584,"componentType":5126,"count":4,"max":[0.35000000000000006,0.74,-0.015],"min":[0.35000000000000006,0.5399999999999999,-0.35000000000000006],"type":"VEC3"},{"bufferView":0,"byteOffset":1632,"componentType":5126,"count":4,"max":[0.33,0.52,-0.015],"min":[0.02,0.5199999999999999,-0.35000000000000006],"type":"VEC3"},{"bufferView":0,"byteOffset":1680,"componentType":5126,"count":4,"max":[0.33,0.52,-0.015],"min":[0.33,0.31999999999999997,-0.35000000000000006],"type":"VEC3"},{"bufferView":0,"byteOffset":1728,"componentType":5126,"count":4,"max":[0.33,0.32,-0.015],"min":[0.02,0.31999999999999997,-0.35000000000000006],"type":"VEC3"},{"bufferView":0,"byteOffset":1776,"componentType":5126,"count":4,"max":[0.02,0.52,-0.015],"min":[0.02,0.31999999999999997,-0.35000000000000006],"type":"VEC3"},{"bufferView":0,"byteOffset":1824,"componentType":5126,"count":4,"max":[0.33,0.3,-0.015],"min":[0.02,0.29999999999999996,-0.35000000000000006],"type":"VEC3"},{"bufferView":0,"byteOffset":1872,"componentType":5126,"count":4,"max":[0.33,0.3,-0.015],"min":[0.33,0.09999999999999992,-0.35000000000000006],"type":"VEC3"},{"bufferView":0,"byteOffset":1920,"componentType":5126,"count":4,"max":[0.33,0.1,-0.015],"min":[0.02,0.09999999999999992,-0.35000000000000006],"type":"VEC3"},{"bufferView":0,"byteOffset":1968,"componentType":5126,"count":4,"max":[0.02,0.3,-0.015],"min":[0.02,0.09999999999999992,-0.35000000000000006],"type":"VEC3"},{"bufferView":0,"byteOffset":2016,"componentType":5126,"count":4,"max":[0.66,0.52,-0.015],"min":[0.35000000000000006,0.5199999999999999,-0.35000000000000006],"type":"VEC3"},{"bufferView":0,"byteOffset":2064,"componentType":5126,"count":4,"max":[0.66,0.52,-0.015],"min":[0.66,0.31999999999999997,-0.35000000000000006],"type":"VEC3"},{"bufferView":0,"byteOffset":2112,"componentType":5126,"count":4,"max":[0.66,0.32,-0.015],"min":[0.35000000000000006,0.31999999999999997,-0.35000000000000006],"type":"VEC3"},{"bufferView":0,"byteOffset":2160,"componentType":5126,"count":4,"max":[0.35000000000000006,0.52,-0.015],"min":[0.35000000000000006,0.31999999999999997,-0.35000000000000006],"type":"VEC3"},{"bufferView":0,"byteOffset":2208,"componentType":5126,"count":4,"max":[0.66,0.3,-0.015],"min":[0.35000000000000006,0.29999999999999996,-0.35000000000000006],"type":"VEC3"},{"bufferView":0,"byteOffset":2256,"componentType":5126,"count":4,"max":[0.66,0.3,-0.015],"min":[0.66,0.09999999999999992,-0.35000000000000006],"type":"VEC3"},{"bufferView":0,"byteOffset":2304,"componentType":5126,"count":4,"max":[0.66,0.1,-0.015],"min":[0.35000000000000006,0.09999999999999992,-0.35000000000000006],"type":"VEC3"},{"bufferView":0,"byteOffset":2352,"componentType":5126,"count":4,"max":[0.35000000000000006,0.3,-0.015],"min":[0.35000000000000006,0.09999999999999992,-0.35000000000000006],"type":"VEC3"},{"bufferView":0,"byteOffset":2400,"componentType":5126,"count":4,"max":[0.66,0.08,-0.015],"min":[0.02,-3.3306690738754696e-18,-0.015],"type":"VEC3"},{"bufferView":0,"byteOffset":2448,"componentType":5126,"count":4,"max":[0.68,0.9,0.0],"min":[0.0,0.0,0.0],"type":"VEC3"},{"bufferView":0,"byteOffset":2496,"componentType":5126,"count":4,"max":[0.33,0.9,-0.015],"min":[0.02,0.76,-0.015],"type":"VEC3"},{"bufferView":0,"byteOffset":2544,"componentType":5126,"count":4,"max":[0.66,0.9,-0.015],"min":[0.35000000000000006,0.76,-0.015],"type":"VEC3"},{"bufferView":0,"byteOffset":2592,"componentType":5126,"count":4,"max":[0.33,0.74,-0.015],"min":[0.02,0.54,-0.015],"type":"VEC3"},{"bufferView":0,"byteOffset":2640,"componentType":5126,"count":4,"max":[0.66,0.74,-0.015],"min":[0.35000000000000006,0.54,-0.015],"type":"VEC3"},{"bufferView":0,"byteOffset":2688,"componentType":5126,"count":4,"max":[0.33,0.52,-0.015],"min":[0.02,0.32,-0.015],"type":"VEC3"},{"bufferView":0,"byteOffset":2736,"componentType":5126,"count":4,"max":[0.33,0.3,-0.015],"min":[0.02,0.1,-0.015],"type":"VEC3"},{"bufferView":0,"byteOffset":2784,"componentType":5126,"count":4,"max":[0.66,0.52,-0.015],"min":[0.35000000000000006,0.32,-0.015],"type":"VEC3"},{"bufferView":0,"byteOffset":2832,"componentType":5126,"count":4,"max":[0.66,0.3,-0.015],"min":[0.35000000000000006,0.1,-0.015],"type":"VEC3"},{"bufferView":1,"byteOffset":0,"componentType":5126,"count":40,"type":"VEC3"},{"bufferView":1,"byteOffset":480,"componentType":5126,"count":8,"type":"VEC3"},{"bufferView":1,"byteOffset":576,"componentType":5126,"count":4,"type":"VEC3"},{"bufferView":1,"byteOffset":624,"componentType":5126,"count":4,"type":"VEC3"},{"bufferView":1,"byteOffset":672,"componentType":5126,"count":4,"type":"VEC3"},{"bufferView":1,"byteOffset":720,"componentType":5126,"count":4,"type":"VEC3"},{"bufferView":1,"byteOffset":768,"componentType":5126,"count":12,"type":"VEC3"},{"bufferView":1,"byteOffset":912,"componentType":5126,"count":4,"type":"VEC3"},{"bufferView":1,"byteOffset":960,"componentType":5126,"count":4,"type":"VEC3"},{"bufferView":1,"byteOffset":1008,"componentType":5126,"count":4,"type":"VEC3"},{"bufferView":1,"byteOffset":1056,"componentType":5126,"count":4,"type":"VEC3"},{"bufferView":1,"byteOffset":1104,"componentType":5126,"count":4,"type":"VEC3"},{"bufferView":1,"byteOffset":1152,"componentType":5126,"count":4,"type":"VEC3"},{"bufferView":1,"byteOffset":1200,"componentType":5126,"count":4,"type":"VEC3"},{"bufferView":1,"byteOffset":1248,"componentType":5126,"count":4,"type":"VEC3"},{"bufferView":1,"byteOffset":1296,"componentType":5126,"count":4,"type":"VEC3"},{"bufferView":1,"byteOffset":1344,"componentType":5126,"count":4,"type":"VEC3"},{"bufferView":1,"byteOffset":1392,"componentType":5126,"count":4,"type":"VEC3"},{"bufferView":1,"byteOffset":1440,"componentType":5126,"count":4,"type":"VEC3"},{"bufferView":1,"byteOffset":1488,"componentType":5126,"count":4,"type":"VEC3"},{"bufferView":1,"byteOffset":1536,"componentType":5126,"count":4,"type":"VEC3"},{"bufferView":1,"byteOffset":1584,"componentType":5126,"count":4,"type":"VEC3"},{"bufferView":1,"byteOffset":1632,"componentType":5126,"count":4,"type":"VEC3"},{"bufferView":1,"byteOffset":1680,"componentType":5126,"count":4,"type":"VEC3"},{"bufferView":1,"byteOffset":1728,"componentType":5126,"count":4,"type":"VEC3"},{"bufferView":1,"byteOffset":1776,"componentType":5126,"count":4,"type":"VEC3"},{"bufferView":1,"byteOffset":1824,"componentType":5126,"count":4,"type":"VEC3"},{"bufferView":1,"byteOffset":1872,"componentType":5126,"count":4,"type":"VEC3"},{"bufferView":1,"byteOffset":1920,"componentType":5126,"count":4,"type":"VEC3"},{"bufferView":1,"byteOffset":1968,"componentType":5126,"count":4,"type":"VEC3"},{"bufferView":1,"byteOffset":2016,"componentType":5126,"count":4,"type":"VEC3"},{"bufferView":1,"byteOffset":2064,"componentType":5126,"count":4,"type":"VEC3"},{"bufferView":1,"byteOffset":2112,"componentType":5126,"count":4,"type":"VEC3"},{"bufferView":1,"byteOffset":2160,"componentType":5126,"count":4,"type":"VEC3"},{"bufferView":1,"byteOffset":2208,"componentType":5126,"count":4,"type":"VEC3"},{"bufferView":1,"byteOffset":2256,"componentType":5126,"count":4,"type":"VEC3"},{"bufferView":1,"byteOffset":2304,"componentType":5126,"count":4,"type":"VEC3"},{"bufferView":1,"byteOffset":2352,"componentType":5126,"count":4,"type":"VEC3"},{"bufferView":1,"byteOffset":2400,"componentType":5126,"count":4,"type":"VEC3"},{"bufferView":1,"byteOffset":2448,"componentType":5126,"count":4,"type":"VEC3"},{"bufferView":1,"byteOffset":2496,"componentType":5126,"count":4,"type":"VEC3"},{"bufferView":1,"byteOffset":2544,"componentType":5126,"count":4,"type":"VEC3"},{"bufferView":1,"byteOffset":2592,"componentType":5126,"count":4,"type":"VEC3"},{"bufferView":1,"byteOffset":2640,"componentType":5126,"count":4,"type":"VEC3"},{"bufferView":1,"byteOffset":2688,"componentType":5126,"count":4,"type":"VEC3"},{"bufferView":1,"byteOffset":2736,"componentType":5126,"count":4,"type":"VEC3"},{"bufferView":1,"byteOffset":2784,"componentType":5126,"count":4,"type":"VEC3"},{"bufferView":1,"byteOffset":2832,"componentType":5126,"count":4,"type":"VEC3"},{"bufferView":2,"byteOffset":0,"componentType":5123,"count":150,"type":"SCALAR"},{"bufferView":2,"byteOffset":300,"componentType":5123,"count":18,"type":"SCALAR"},{"bufferView":2,"byteOffset":336,"componentType":5123,"count":6,"type":"SCALAR"},{"bufferView":2,"byteOffset":348,"componentType":5123,"count":6,"type":"SCALAR"},{"bufferView":2,"byteOffset":360,"componentType":5123,"count":6,"type":"SCALAR"},{"bufferView":2,"byteOffset":372,"componentType":5123,"count":6,"type":"SCALAR"},{"bufferView":2,"byteOffset":384,"componentType":5123,"count":30,"type":"SCALAR"},{"bufferView":2,"byteOffset":444,"componentType":5123,"count":6,"type":"SCALAR"},{"bufferView":2,"byteOffset":456,"componentType":5123,"count":6,"type":"SCALAR"},{"bufferView":2,"byteOffset":468,"componentType":5123,"count":6,"type":"SCALAR"},{"bufferView":2,"byteOffset":480,"componentType":5123,"count":6,"type":"SCALAR"},{"bufferView":2,"byteOffset":492,"componentType":5123,"count":6,"type":"SCALAR"},{"bufferView":2,"byteOffset":504,"componentType":5123,"count":6,"type":"SCALAR"},{"bufferView":2,"byteOffset":516,"componentType":5123,"count":6,"type":"SCALAR"},{"bufferView":2,"byteOffset":528,"componentType":5123,"count":6,"type":"SCALAR"},{"bufferView":2,"byteOffset":540,"componentType":5123,"count":6,"type":"SCALAR"},{"bufferView":2,"byteOffset":552,"componentType":5123,"count":6,"type":"SCALAR"},{"bufferView":2,"byteOffset":564,"componentType":5123,"count":6,"type":"SCALAR"},{"bufferView":2,"byteOffset":576,"componentType":5123,"count":6,"type":"SCALAR"},{"bufferView":2,"byteOffset":588,"componentType":5123,"count":6,"type":"SCALAR"},{"bufferView":2,"byteOffset":600,"componentType":5123,"count":6,"type":"SCALAR"},{"bufferView":2,"byteOffset":612,"componentType":5123,"count":6,"type":"SCALAR"},{"bufferView":2,"byteOffset":624,"componentType":5123,"count":6,"type":"SCALAR"},{"bufferView":2,"byteOffset":636,"componentType":5123,"count":6,"type":"SCALAR"},{"bufferView":2,"byteOffset":648,"componentType":5123,"count":6,"type":"SCALAR"},{"bufferView":2,"byteOffset":660,"componentType":5123,"count":6,"type":"SCALAR"},{"bufferView":2,"byteOffset":672,"componentType":5123,"count":6,"type":"SCALAR"},{"bufferView":2,"byteOffset":684,"componentType":5123,"count":6,"type":"SCALAR"},{"bufferView":2,"byteOffset":696,"componentType":5123,"count":6,"type":"SCALAR"},{"bufferView":2,"byteOffset":708,"componentType":5123,"count":6,"type":"SCALAR"},{"bufferView":2,"byteOffset":720,"componentType":5123,"count":6,"type":"SCALAR"},{"bufferView":2,"byteOffset":732,"componentType":5123,"count":6,"type":"SCALAR"},{"bufferView":2,"byteOffset":744,"componentType":5123,"count":6,"type":"SCALAR"},{"bufferView":2,"byteOffset":756,"componentType":5123,"count":6,"type":"SCALAR"},{"bufferView":2,"byteOffset":768,"componentType":5123,"count":6,"type":"SCALAR"},{"bufferView":2,"byteOffset":780,"componentType":5123,"count":6,"type":"SCALAR"},{"bufferView":2,"byteOffset":792,"componentType":5123,"count":6,"type":"SCALAR"},{"bufferView":2,"byteOffset":804,"componentType":5123,"count":6,"type":"SCALAR"},{"bufferView":2,"byteOffset":816,"componentType":5123,"count":6,"type":"SCALAR"},{"bufferView":2,"byteOffset":828,"componentType":5123,"count":6,"type":"SCALAR"},{"bufferView":2,"byteOffset":840,"componentType":5123,"count":6,"type":"SCALAR"},{"bufferView":2,"byteOffset":852,"componentType":5123,"count":6,"type":"SCALAR"},{"bufferView":2,"byteOffset":864,"componentType":5123,"count":6,"type":"SCALAR"},{"bufferView":2,"byteOffset":876,"componentType":5123,"count":6,"type":"SCALAR"},{"bufferView":2,"byteOffset":888,"componentType":5123,"count":6,"type":"SCALAR"},{"bufferView":2,"byteOffset":900,"componentType":5123,"count":6,"type":"SCALAR"},{"bufferView":2,"byteOffset":912,"componentType":5123,"count":6,"type":"SCALAR"},{"bufferView":2,"byteOffset":924,"componentType":5123,"count":6,"type":"SCALAR"}],"asset":{"generator":"Open CASCADE Technology 7.7 [dev.opencascade.org]","version":"2.0"},"bufferViews":[{"buffer":0,"byteLength":2880,"byteOffset":0,"byteStride":12,"target":34962},{"buffer":0,"byteLength":2880,"byteOffset":2880,"byteStride":12,"target":34962},{"buffer":0,"byteLength":936,"byteOffset":5760,"target":34963}],"buffers":[{"byteLength":6696,"uri":"shoe-cupboard.bin"}],"materials":[{"name":"mat_0","pbrMetallicRoughness":{"baseColorFactor":[0.6038273572921753,0.6038273572921753,0.6038273572921753,1.0]},"doubleSided":true}],"meshes":[{"name":"Shoe cupboard","primitives":[{"attributes":{"NORMAL":48,"POSITION":0},"indices":96,"material":0,"mode":4},{"attributes":{"NORMAL":49,"POSITION":1},"indices":97,"material":0,"mode":4},{"attributes":{"NORMAL":50,"POSITION":2},"indices":98,"material":0,"mode":4},{"attributes":{"NORMAL":51,"POSITION":3},"indices":99,"material":0,"mode":4},{"attributes":{"NORMAL":52,"POSITION":4},"indices":100,"material":0,"mode":4},{"attributes":{"NORMAL":53,"POSITION":5},"indices":101,"material":0,"mode":4},{"attributes":{"NORMAL":54,"POSITION":6},"indices":102,"material":0,"mode":4},{"attributes":{"NORMAL":55,"POSITION":7},"indices":103,"material":0,"mode":4},{"attributes":{"NORMAL":56,"POSITION":8},"indices":104,"material":0,"mode":4},{"attributes":{"NORMAL":57,"POSITION":9},"indices":105,"material":0,"mode":4},{"attributes":{"NORMAL":58,"POSITION":10},"indices":106,"material":0,"mode":4},{"attributes":{"NORMAL":59,"POSITION":11},"indices":107,"material":0,"mode":4},{"attributes":{"NORMAL":60,"POSITION":12},"indices":108,"material":0,"mode":4},{"attributes":{"NORMAL":61,"POSITION":13},"indices":109,"material":0,"mode":4},{"attributes":{"NORMAL":62,"POSITION":14},"indices":110,"material":0,"mode":4},{"attributes":{"NORMAL":63,"POSITION":15},"indices":111,"material":0,"mode":4},{"attributes":{"NORMAL":64,"POSITION":16},"indices":112,"material":0,"mode":4},{"attributes":{"NORMAL":65,"POSITION":17},"indices":113,"material":0,"mode":4},{"attributes":{"NORMAL":66,"POSITION":18},"indices":114,"material":0,"mode":4},{"attributes":{"NORMAL":67,"POSITION":19},"indices":115,"material":0,"mode":4},{"attributes":{"NORMAL":68,"POSITION":20},"indices":116,"material":0,"mode":4},{"attributes":{"NORMAL":69,"POSITION":21},"indices":117,"material":0,"mode":4},{"attributes":{"NORMAL":70,"POSITION":22},"indices":118,"material":0,"mode":4},{"attributes":{"NORMAL":71,"POSITION":23},"indices":119,"material":0,"mode":4},{"attributes":{"NORMAL":72,"POSITION":24},"indices":120,"material":0,"mode":4},{"attributes":{"NORMAL":73,"POSITION":25},"indices":121,"material":0,"mode":4},{"attributes":{"NORMAL":74,"POSITION":26},"indices":122,"material":0,"mode":4},{"attributes":{"NORMAL":75,"POSITION":27},"indices":123,"material":0,"mode":4},{"attributes":{"NORMAL":76,"POSITION":28},"indices":124,"material":0,"mode":4},{"attributes":{"NORMAL":77,"POSITION":29},"indices":125,"material":0,"mode":4},{"attributes":{"NORMAL":78,"POSITION":30},"indices":126,"material":0,"mode":4},{"attributes":{"NORMAL":79,"POSITION":31},"indices":127,"material":0,"mode":4},{"attributes":{"NORMAL":80,"POSITION":32},"indices":128,"material":0,"mode":4},{"attributes":{"NORMAL":81,"POSITION":33},"indices":129,"material":0,"mode":4},{"attributes":{"NORMAL":82,"POSITION":34},"indices":130,"material":0,"mode":4},{"attributes":{"NORMAL":83,"POSITION":35},"indices":131,"material":0,"mode":4},{"attributes":{"NORMAL":84,"POSITION":36},"indices":132,"material":0,"mode":4},{"attributes":{"NORMAL":85,"POSITION":37},"indices":133,"material":0,"mode":4},{"attributes":{"NORMAL":86,"POSITION":38},"indices":134,"material":0,"mode":4},{"attributes":{"NORMAL":87,"POSITION":39},"indices":135,"material":0,"mode":4},{"attributes":{"NORMAL":88,"POSITION":40},"indices":136,"material":0,"mode":4},{"attributes":{"NORMAL":89,"POSITION":41},"indices":137,"material":0,"mode":4},{"attributes":{"NORMAL":90,"POSITION":42},"indices":138,"material":0,"mode":4},{"attributes":{"NORMAL":91,"POSITION":43},"indices":139,"material":0,"mode":4},{"attributes":{"NORMAL":92,"POSITION":44},"indices":140,"material":0,"mode":4},{"attributes":{"NORMAL":93,"POSITION":45},"indices":141,"material":0,"mode":4},{"attributes":{"NORMAL":94,"POSITION":46},"indices":142,"material":0,"mode":4},{"attributes":{"NORMAL":95,"POSITION":47},"indices":143,"material":0,"mode":4}]}],"nodes":[{"mesh":0,"name":"Shoe cupboard"}],"scene":0,"scenes":[{"nodes":[0]}]}