{"accessors":[{"bufferView":0,"byteOffset":0,"componentType":5126,"count":22,"max":[-0.9100000000000001,0.025,-0.36499999999834439],"min":[-1.0,0.0,-0.455],"type":"VEC3"},{"bufferView":0,"byteOffset":264,"componentType":5126,"count":4,"max":[0.91,0.025,-0.455],"min":[-0.9100000000000001,0.0,-0.455],"type":"VEC3"},{"bufferView":0,"byteOffset":312,"componentType":5126,"count":4,"max":[-1.0,0.025,0.3649999999983444],"min":[-1.0,0.0,-0.36499999999834439],"type":"VEC3"},{"bufferView":0,"byteOffset":360,"componentType":5126,"count":122,"max":[1.0,8.526512829121203e-17,0.455],"min":[-1.0,-1.403321903126198e-16,-0.455],"type":"VEC3"},{"bufferView":0,"byteOffset":1824,"componentType":5126,"count":44,"max":[1.0,0.025,0.455],"min":[-1.0,0.025,-0.455],"type":"VEC3"},{"bufferView":0,"byteOffset":2352,"componentType":5126,"count":22,"max":[1.0,0.025,-0.36499999999834389],"min":[0.91,0.0,-0.455],"type":"VEC3"},{"bufferView":0,"byteOffset":2616,"componentType":5126,"count":22,"max":[-0.91,0.025,0.455],"min":[-1.0,0.0,0.3649999999983444],"type":"VEC3"},{"bufferView":0,"byteOffset":2880,"componentType":5126,"count":4,"max":[1.0,0.025,0.3649999999983439],"min":[1.0,0.0,-0.36499999999834389],"type":"VEC3"},{"bufferView":0,"byteOffset":2928,"componentType":5126,"count":4,"max":[0.91,0.025,0.455],"min":[-0.91,0.0,0.455],"type":"VEC3"},{"bufferView":0,"byteOffset":2976,"componentType":5126,"count":22,"max":[1.0,0.025,0.455],"min":[0.91,0.0,0.3649999999983439],"type":"VEC3"},{"bufferView":0,"byteOffset":3240,"componentType":5126,"count":454,"max":[-0.5661045709153119,0.0,0.3707738661966794],"min":[-0.8007738661966796,-0.7299999999999999,0.1361476957514668],"type":"VEC3"},{"bufferView":0,"byteOffset":8688,"componentType":5126,"count":17,"max":[-0.5713633237673411,0.0,0.20388583823467427],"min":[-0.6058236147473302,-0.012222785267599512,0.18999999999999998],"type":"VEC3"},{"bufferView":0,"byteOffset":8892,"componentType":5126,"count":18,"max":[0.583911498813287,0.0,0.19000000000000018],"min":[-0.583911498813287,-0.08,0.18999999999999998],"type":"VEC3"},{"bufferView":0,"byteOffset":9108,"componentType":5126,"count":17,"max":[0.6058236147473299,8.526512829121203e-17,0.2038858382346744],"min":[0.571363323767341,-0.012222785267599438,0.18999999999999998],"type":"VEC3"},{"bufferView":0,"byteOffset":9312,"componentType":5126,"count":454,"max":[0.8007738661966796,8.526512829121203e-17,0.3707738661966796],"min":[0.5661045709153119,-0.7300000000000002,0.1361476957514669],"type":"VEC3"},{"bufferView":0,"byteOffset":14760,"componentType":5126,"count":14,"max":[0.6338742446776171,8.171241461241152e-17,0.17582361474732995],"min":[0.6249999999999993,-0.00986991496167013,0.14550544799587468],"type":"VEC3"},{"bufferView":0,"byteOffset":14928,"componentType":5126,"count":16,"max":[0.625,0.0,0.15810081519208339],"min":[0.6249999999999993,-0.08,-0.15810081519208386],"type":"VEC3"},{"bufferView":0,"byteOffset":15120,"componentType":5126,"count":13,"max":[0.6338742446776172,0.0,-0.14550544799587468],"min":[0.6249999999999996,-0.00986991496167013,-0.1758236147473288],"type":"VEC3"},{"bufferView":0,"byteOffset":15276,"componentType":5126,"count":454,"max":[0.8007738661966796,0.0,-0.13614769575146694],"min":[0.5661045709153119,-0.7300000000000002,-0.3707738661966796],"type":"VEC3"},{"bufferView":0,"byteOffset":20724,"componentType":5126,"count":17,"max":[0.6058236147473287,0.0,-0.19000000000000004],"min":[0.571363323767341,-0.012222785267599417,-0.2038858382346745],"type":"VEC3"},{"bufferView":0,"byteOffset":20928,"componentType":5126,"count":18,"max":[0.583911498813287,0.0,-0.19000000000000004],"min":[-0.583911498813287,-0.08,-0.19000000000000029],"type":"VEC3"},{"bufferView":0,"byteOffset":21144,"componentType":5126,"count":17,"max":[-0.5713633237673411,0.0,-0.19000000000000004],"min":[-0.6058236147473302,-0.012222785267599488,-0.20388583823467427],"type":"VEC3"},{"bufferView":0,"byteOffset":21348,"componentType":5126,"count":454,"max":[-0.5661045709153119,0.0,-0.1361476957514668],"min":[-0.8007738661966796,-0.7300000000000001,-0.3707738661966794],"type":"VEC3"},{"bufferView":0,"byteOffset":26796,"componentType":5126,"count":14,"max":[-0.6249999999999993,0.0,-0.14550544799587454],"min":[-0.6338742446776171,-0.009869914961670269,-0.17582361474733006],"type":"VEC3"},{"bufferView":0,"byteOffset":26964,"componentType":5126,"count":16,"max":[-0.6249999999999993,0.0,0.15810081519208397],"min":[-0.625,-0.08,-0.15810081519208325],"type":"VEC3"},{"bufferView":0,"byteOffset":27156,"componentType":5126,"count":13,"max":[-0.6249999999999997,0.0,0.17582361474733006],"min":[-0.6338742446776171,-0.009869914961670269,0.14550544799587454],"type":"VEC3"},{"bufferView":0,"byteOffset":27312,"componentType":5126,"count":11,"max":[-0.7855124110469126,-0.7284330158552649,0.3707738661966794],"min":[-0.8007738661966796,-0.7299999999999999,0.35551241104691247],"type":"VEC3"},{"bufferView":0,"byteOffset":27444,"componentType":5126,"count":31,"max":[-0.7696155329169498,-0.7299999999999999,0.3707738661966794],"min":[-0.8007738661966796,-0.7299999999999999,0.3396064225025705],"type":"VEC3"},{"bufferView":0,"byteOffset":27816,"componentType":5126,"count":18,"max":[0.5875811287496231,-0.08,0.18999999999999998],"min":[-0.587581128749619,-0.08,0.17000000000000005],"type":"VEC3"},{"bufferView":0,"byteOffset":28032,"componentType":5126,"count":10,"max":[-0.605,-0.08,0.15538415116994268],"min":[-0.625,-0.08,-0.15538415116994268],"type":"VEC3"},{"bufferView":0,"byteOffset":28152,"componentType":5126,"count":18,"max":[-0.605,0.0,0.15538415116994268],"min":[-0.6050000000000002,-0.08,-0.15538415116994268],"type":"VEC3"},{"bufferView":0,"byteOffset":28368,"componentType":5126,"count":33,"max":[-0.5661045709153119,0.0,0.17000000000000005],"min":[-0.605,-0.021938048202635054,0.1361476957514668],"type":"VEC3"},{"bufferView":0,"byteOffset":28764,"componentType":5126,"count":24,"max":[0.5875811287496231,0.0,0.17000000000000063],"min":[-0.587581128749619,-0.08,0.16999999999999905],"type":"VEC3"},{"bufferView":0,"byteOffset":29052,"componentType":5126,"count":10,"max":[0.625,-0.08,0.15538415116994284],"min":[0.605,-0.08,-0.15538415116994284],"type":"VEC3"},{"bufferView":0,"byteOffset":29172,"componentType":5126,"count":18,"max":[0.6050000000000002,0.0,0.15538415116994284],"min":[0.605,-0.08,-0.15538415116994284],"type":"VEC3"},{"bufferView":0,"byteOffset":29388,"componentType":5126,"count":33,"max":[0.6050000000000002,0.0,0.17000000000000005],"min":[0.5661045709153119,-0.021938048202634919,0.1361476957514669],"type":"VEC3"},{"bufferView":0,"byteOffset":29784,"componentType":5126,"count":31,"max":[0.8007738661966796,-0.7299999999999999,0.3707738661966796],"min":[0.7696155329169502,-0.7300000000000002,0.3396330466178788],"type":"VEC3"},{"bufferView":0,"byteOffset":30156,"componentType":5126,"count":11,"max":[0.8007738661966796,-0.7284330158552647,0.3707738661966796],"min":[0.7855124110469102,-0.7300000000000002,0.3555124110469102],"type":"VEC3"},{"bufferView":0,"byteOffset":30288,"componentType":5126,"count":11,"max":[0.8007738661966796,-0.7284330158552647,-0.3555124110469104],"min":[0.7855124110469103,-0.7300000000000002,-0.3707738661966796],"type":"VEC3"},{"bufferView":0,"byteOffset":30420,"componentType":5126,"count":31,"max":[0.8007738661966796,-0.7300000000000001,-0.33960642250257086],"min":[0.7696155329169503,-0.7300000000000002,-0.3707738661966796],"type":"VEC3"},{"bufferView":0,"byteOffset":30792,"componentType":5126,"count":18,"max":[0.5875811287496208,-0.08,-0.17000000000000005],"min":[-0.5875811287496208,-0.08,-0.19000000000000004],"type":"VEC3"},{"bufferView":0,"byteOffset":31008,"componentType":5126,"count":33,"max":[0.6050000000000001,0.0,-0.13614769575146694],"min":[0.5661045709153119,-0.021938048202634919,-0.17000000000000005],"type":"VEC3"},{"bufferView":0,"byteOffset":31404,"componentType":5126,"count":24,"max":[0.5875811287496208,0.0,-0.16999999999999905],"min":[-0.5875811287496208,-0.08,-0.17000000000000005],"type":"VEC3"},{"bufferView":0,"byteOffset":31692,"componentType":5126,"count":33,"max":[-0.5661045709153119,0.0,-0.1361476957514668],"min":[-0.6050000000000002,-0.02193804820263505,-0.17000000000000005],"type":"VEC3"},{"bufferView":0,"byteOffset":32088,"componentType":5126,"count":31,"max":[-0.76961553291695,-0.7299999999999998,-0.33963304661787865],"min":[-0.8007738661966796,-0.7300000000000001,-0.3707738661966794],"type":"VEC3"},{"bufferView":0,"byteOffset":32460,"componentType":5126,"count":11,"max":[-0.785512411046913,-0.7284330158552649,-0.3555124110469129],"min":[-0.8007738661966796,-0.7299999999999998,-0.3707738661966794],"type":"VEC3"},{"bufferView":0,"byteOffset":32592,"componentType":5126,"count":60,"max":[0.6050000000000002,0.0,0.17000000000000063],"min":[-0.6050000000000002,0.0,-0.16999999999999908],"type":"VEC3"},{"bufferView":0,"byteOffset":33312,"componentType":5126,"count":9,"max":[-0.5688800924325002,0.0,0.17000000000000005],"min":[-0.5774322795366755,-0.013880092432501403,0.16680470232111939],"type":"VEC3"},{"bufferView":0,"byteOffset":33420,"componentType":5126,"count":9,"max":[0.5774322795366756,0.0,0.17000000000000063],"min":[0.5688800924325007,-0.013880092432500718,0.16680470232111953],"type":"VEC3"},{"bufferView":0,"byteOffset":33528,"componentType":5126,"count":9,"max":[0.5774322795366756,0.0,-0.16680470232111958],"min":[0.5688800924325008,-0.013880092432500508,-0.17000000000000005],"type":"VEC3"},{"bufferView":0,"byteOffset":33636,"componentType":5126,"count":9,"max":[-0.5688800924325003,0.0,-0.16680470232111936],"min":[-0.5774322795366758,-0.013880092432501464,-0.17000000000000005],"type":"VEC3"},{"bufferView":1,"byteOffset":0,"componentType":5126,"count":22,"type":"VEC3"},{"bufferView":1,"byteOffset":264,"componentType":5126,"count":4,"type":"VEC3"},{"bufferView":1,"byteOffset":312,"componentType":5126,"count":4,"type":"VEC3"},{"bufferView":1,"byteOffset":360,"componentType":5126,"count":122,"type":"VEC3"},{"bufferView":1,"byteOffset":1824,"componentType":5126,"count":44,"type":"VEC3"},{"bufferView":1,"byteOffset":2352,"componentType":5126,"count":22,"type":"VEC3"},{"bufferView":1,"byteOffset":2616,"componentType":5126,"count":22,"type":"VEC3"},{"bufferView":1,"byteOffset":2880,"componentType":5126,"count":4,"type":"VEC3"},{"bufferView":1,"byteOffset":2928,"componentType":5126,"count":4,"type":"VEC3"},{"bufferView":1,"byteOffset":2976,"componentType":5126,"count":22,"type":"VEC3"},{"bufferView":1,"byteOffset":3240,"componentType":5126,"count":454,"type":"VEC3"},{"bufferView":1,"byteOffset":8688,"componentType":5126,"count":17,"type":"VEC3"},{"bufferView":1,"byteOffset":8892,"componentType":5126,"count":18,"type":"VEC3"},{"bufferView":1,"byteOffset":9108,"componentType":5126,"count":17,"type":"VEC3"},{"bufferView":1,"byteOffset":9312,"componentType":5126,"count":454,"type":"VEC3"},{"bufferView":1,"byteOffset":14760,"componentType":5126,"count":14,"type":"VEC3"},{"bufferView":1,"byteOffset":14928,"componentType":5126,"count":16,"type":"VEC3"},{"bufferView":1,"byteOffset":15120,"componentType":5126,"count":13,"type":"VEC3"},{"bufferView":1,"byteOffset":15276,"componentType":5126,"count":454,"type":"VEC3"},{"bufferView":1,"byteOffset":20724,"componentType":5126,"count":17,"type":"VEC3"},{"bufferView":1,"byteOffset":20928,"componentType":5126,"count":18,"type":"VEC3"},{"bufferView":1,"byteOffset":21144,"componentType":5126,"count":17,"type":"VEC3"},{"bufferView":1,"byteOffset":21348,"componentType":5126,"count":454,"type":"VEC3"},{"bufferView":1,"byteOffset":26796,"componentType":5126,"count":14,"type":"VEC3"},{"bufferView":1,"byteOffset":26964,"componentType":5126,"count":16,"type":"VEC3"},{"bufferView":1,"byteOffset":27156,"componentType":5126,"count":13,"type":"VEC3"},{"bufferView":1,"byteOffset":27312,"componentType":5126,"count":11,"type":"VEC3"},{"bufferView":1,"byteOffset":27444,"componentType":5126,"count":31,"type":"VEC3"},{"bufferView":1,"byteOffset":27816,"componentType":5126,"count":18,"type":"VEC3"},{"bufferView":1,"byteOffset":28032,"componentType":5126,"count":10,"type":"VEC3"},{"bufferView":1,"byteOffset":28152,"componentType":5126,"count":18,"type":"VEC3"},{"bufferView":1,"byteOffset":28368,"componentType":5126,"count":33,"type":"VEC3"},{"bufferView":1,"byteOffset":28764,"componentType":5126,"count":24,"type":"VEC3"},{"bufferView":1,"byteOffset":29052,"componentType":5126,"count":10,"type":"VEC3"},{"bufferView":1,"byteOffset":29172,"componentType":5126,"count":18,"type":"VEC3"},{"bufferView":1,"byteOffset":29388,"componentType":5126,"count":33,"type":"VEC3"},{"bufferView":1,"byteOffset":29784,"componentType":5126,"count":31,"type":"VEC3"},{"bufferView":1,"byteOffset":30156,"componentType":5126,"count":11,"type":"VEC3"},{"bufferView":1,"byteOffset":30288,"componentType":5126,"count":11,"type":"VEC3"},{"bufferView":1,"byteOffset":30420,"componentType":5126,"count":31,"type":"VEC3"},{"bufferView":1,"byteOffset":30792,"componentType":5126,"count":18,"type":"VEC3"},{"bufferView":1,"byteOffset":31008,"componentType":5126,"count":33,"type":"VEC3"},{"bufferView":1,"byteOffset":31404,"componentType":5126,"count":24,"type":"VEC3"},{"bufferView":1,"byteOffset":31692,"componentType":5126,"count":33,"type":"VEC3"},{"bufferView":1,"byteOffset":32088,"componentType":5126,"count":31,"type":"VEC3"},{"bufferView":1,"byteOffset":32460,"componentType":5126,"count":11,"type":"VEC3"},{"bufferView":1,"byteOffset":32592,"componentType":5126,"count":60,"type":"VEC3"},{"bufferView":1,"byteOffset":33312,"componentType":5126,"count":9,"type":"VEC3"},{"bufferView":1,"byteOffset":33420,"componentType":5126,"count":9,"type":"VEC3"},{"bufferView":1,"byteOffset":33528,"componentType":5126,"count":9,"type":"VEC3"},{"bufferView":1,"byteOffset":33636,"componentType":5126,"count":9,"type":"VEC3"},{"bufferView":2,"byteOffset":0,"componentType":5123,"count":60,"type":"SCALAR"},{"bufferView":2,"byteOffset":120,"componentType":5123,"count":6,"type":"SCALAR"},{"bufferView":2,"byteOffset":132,"componentType":5123,"count":6,"type":"SCALAR"},{"bufferView":2,"byteOffset":144,"componentType":5123,"count":366,"type":"SCALAR"},{"bufferView":2,"byteOffset":876,"componentType":5123,"count":126,"type":"SCALAR"},{"bufferView":2,"byteOffset":1128,"componentType":5123,"count":60,"type":"SCALAR"},{"bufferView":2,"byteOffset":1248,"componentType":5123,"count":60,"type":"SCALAR"},{"bufferView":2,"byteOffset":1368,"componentType":5123,"count":6,"type":"SCALAR"},{"bufferView":2,"byteOffset":1380,"componentType":5123,"count":6,"type":"SCALAR"},{"bufferView":2,"byteOffset":1392,"componentType":5123,"count":60,"type":"SCALAR"},{"bufferView":2,"byteOffset":1512,"componentType":5123,"count":2313,"type":"SCALAR"},{"bufferView":2,"byteOffset":6140,"componentType":5123,"count":45,"type":"SCALAR"},{"bufferView":2,"byteOffset":6232,"componentType":5123,"count":48,"type":"SCALAR"},{"bufferView":2,"byteOffset":6328,"componentType":5123,"count":45,"type":"SCALAR"},{"bufferView":2,"byteOffset":6420,"componentType":5123,"count":2313,"type":"SCALAR"},{"bufferView":2,"byteOffset":11048,"componentType":5123,"count":36,"type":"SCALAR"},{"bufferView":2,"byteOffset":11120,"componentType":5123,"count":42,"type":"SCALAR"},{"bufferView":2,"byteOffset":11204,"componentType":5123,"count":33,"type":"SCALAR"},{"bufferView":2,"byteOffset":11272,"componentType":5123,"count":2313,"type":"SCALAR"},{"bufferView":2,"byteOffset":15900,"componentType":5123,"count":45,"type":"SCALAR"},{"bufferView":2,"byteOffset":15992,"componentType":5123,"count":48,"type":"SCALAR"},{"bufferView":2,"byteOffset":16088,"componentType":5123,"count":45,"type":"SCALAR"},{"bufferView":2,"byteOffset":16180,"componentType":5123,"count":2313,"type":"SCALAR"},{"bufferView":2,"byteOffset":20808,"componentType":5123,"count":36,"type":"SCALAR"},{"bufferView":2,"byteOffset":20880,"componentType":5123,"count":42,"type":"SCALAR"},{"bufferView":2,"byteOffset":20964,"componentType":5123,"count":33,"type":"SCALAR"},{"bufferView":2,"byteOffset":21032,"componentType":5123,"count":27,"type":"SCALAR"},{"bufferView":2,"byteOffset":21088,"componentType":5123,"count":87,"type":"SCALAR"},{"bufferView":2,"byteOffset":21264,"componentType":5123,"count":48,"type":"SCALAR"},{"bufferView":2,"byteOffset":21360,"componentType":5123,"count":24,"type":"SCALAR"},{"bufferView":2,"byteOffset":21408,"componentType":5123,"count":48,"type":"SCALAR"},{"bufferView":2,"byteOffset":21504,"componentType":5123,"count":108,"type":"SCALAR"},{"bufferView":2,"byteOffset":21720,"componentType":5123,"count":66,"type":"SCALAR"},{"bufferView":2,"byteOffset":21852,"componentType":5123,"count":24,"type":"SCALAR"},{"bufferView":2,"byteOffset":21900,"componentType":5123,"count":48,"type":"SCALAR"},{"bufferView":2,"byteOffset":21996,"componentType":5123,"count":108,"type":"SCALAR"},{"bufferView":2,"byteOffset":22212,"componentType":5123,"count":87,"type":"SCALAR"},{"bufferView":2,"byteOffset":22388,"componentType":5123,"count":27,"type":"SCALAR"},{"bufferView":2,"byteOffset":22444,"componentType":5123,"count":27,"type":"SCALAR"},{"bufferView":2,"byteOffset":22500,"componentType":5123,"count":87,"type":"SCALAR"},{"bufferView":2,"byteOffset":22676,"componentType":5123,"count":48,"type":"SCALAR"},{"bufferView":2,"byteOffset":22772,"componentType":5123,"count":108,"type":"SCALAR"},{"bufferView":2,"byteOffset":22988,"componentType":5123,"count":66,"type":"SCALAR"},{"bufferView":2,"byteOffset":23120,"componentType":5123,"count":108,"type":"SCALAR"},{"bufferView":2,"byteOffset":23336,"componentType":5123,"count":87,"type":"SCALAR"},{"bufferView":2,"byteOffset":23512,"componentType":5123,"count":27,"type":"SCALAR"},{"bufferView":2,"byteOffset":23568,"componentType":5123,"count":174,"type":"SCALAR"},{"bufferView":2,"byteOffset":23916,"componentType":5123,"count":21,"type":"SCALAR"},{"bufferView":2,"byteOffset":23960,"componentType":5123,"count":21,"type":"SCALAR"},{"bufferView":2,"byteOffset":24004,"componentType":5123,"count":21,"type":"SCALAR"},{"bufferView":2,"byteOffset":24048,"componentType":5123,"count":21,"type":"SCALAR"}],"asset":{"generator":"Open CASCADE Technology 7.7 [dev.opencascade.org]","version":"2.0"},"bufferViews":[{"buffer":0,"byteLength":33744,"byteOffset":0,"byteStride":12,"target":34962},{"buffer":0,"byteLength":33744,"byteOffset":33744,"byteStride":12,"target":34962},{"buffer":0,"byteLength":24092,"byteOffset":67488,"target":34963}],"buffers":[{"byteLength":91580,"uri":"table.bin"}],"materials":[{"name":"mat_0","pbrMetallicRoughness":{"baseColorFactor":[0.6038273572921753,0.6038273572921753,0.6038273572921753,1.0]},"doubleSided":true}],"meshes":[{"name":"table","primitives":[{"attributes":{"NORMAL":51,"POSITION":0},"indices":102,"material":0,"mode":4},{"attributes":{"NORMAL":52,"POSITION":1},"indices":103,"material":0,"mode":4},{"attributes":{"NORMAL":53,"POSITION":2},"indices":104,"material":0,"mode":4},{"attributes":{"NORMAL":54,"POSITION":3},"indices":105,"material":0,"mode":4},{"attributes":{"NORMAL":55,"POSITION":4},"indices":106,"material":0,"mode":4},{"attributes":{"NORMAL":56,"POSITION":5},"indices":107,"material":0,"mode":4},{"attributes":{"NORMAL":57,"POSITION":6},"indices":108,"material":0,"mode":4},{"attributes":{"NORMAL":58,"POSITION":7},"indices":109,"material":0,"mode":4},{"attributes":{"NORMAL":59,"POSITION":8},"indices":110,"material":0,"mode":4},{"attributes":{"NORMAL":60,"POSITION":9},"indices":111,"material":0,"mode":4},{"attributes":{"NORMAL":61,"POSITION":10},"indices":112,"material":0,"mode":4},{"attributes":{"NORMAL":62,"POSITION":11},"indices":113,"material":0,"mode":4},{"attributes":{"NORMAL":63,"POSITION":12},"indices":114,"material":0,"mode":4},{"attributes":{"NORMAL":64,"POSITION":13},"indices":115,"material":0,"mode":4},{"attributes":{"NORMAL":65,"POSITION":14},"indices":116,"material":0,"mode":4},{"attributes":{"NORMAL":66,"POSITION":15},"indices":117,"material":0,"mode":4},{"attributes":{"NORMAL":67,"POSITION":16},"indices":118,"material":0,"mode":4},{"attributes":{"NORMAL":68,"POSITION":17},"indices":119,"material":0,"mode":4},{"attributes":{"NORMAL":69,"POSITION":18},"indices":120,"material":0,"mode":4},{"attributes":{"NORMAL":70,"POSITION":19},"indices":121,"material":0,"mode":4},{"attributes":{"NORMAL":71,"POSITION":20},"indices":122,"material":0,"mode":4},{"attributes":{"NORMAL":72,"POSITION":21},"indices":123,"material":0,"mode":4},{"attributes":{"NORMAL":73,"POSITION":22},"indices":124,"material":0,"mode":4},{"attributes":{"NORMAL":74,"POSITION":23},"indices":125,"material":0,"mode":4},{"attributes":{"NORMAL":75,"POSITION":24},"indices":126,"material":0,"mode":4},{"attributes":{"NORMAL":76,"POSITION":25},"indices":127,"material":0,"mode":4},{"attributes":{"NORMAL":77,"POSITION":26},"indices":128,"material":0,"mode":4},{"attributes":{"NORMAL":78,"POSITION":27},"indices":129,"material":0,"mode":4},{"attributes":{"NORMAL":79,"POSITION":28},"indices":130,"material":0,"mode":4},{"attributes":{"NORMAL":80,"POSITION":29},"indices":131,"material":0,"mode":4},{"attributes":{"NORMAL":81,"POSITION":30},"indices":132,"material":0,"mode":4},{"attributes":{"NORMAL":82,"POSITION":31},"indices":133,"material":0,"mode":4},{"attributes":{"NORMAL":83,"POSITION":32},"indices":134,"material":0,"mode":4},{"attributes":{"NORMAL":84,"POSITION":33},"indices":135,"material":0,"mode":4},{"attributes":{"NORMAL":85,"POSITION":34},"indices":136,"material":0,"mode":4},{"attributes":{"NORMAL":86,"POSITION":35},"indices":137,"material":0,"mode":4},{"attributes":{"NORMAL":87,"POSITION":36},"indices":138,"material":0,"mode":4},{"attributes":{"NORMAL":88,"POSITION":37},"indices":139,"material":0,"mode":4},{"attributes":{"NORMAL":89,"POSITION":38},"indices":140,"material":0,"mode":4},{"attributes":{"NORMAL":90,"POSITION":39},"indices":141,"material":0,"mode":4},{"attributes":{"NORMAL":91,"POSITION":40},"indices":142,"material":0,"mode":4},{"attributes":{"NORMAL":92,"POSITION":41},"indices":143,"material":0,"mode":4},{"attributes":{"NORMAL":93,"POSITION":42},"indices":144,"material":0,"mode":4},{"attributes":{"NORMAL":94,"POSITION":43},"indices":145,"material":0,"mode":4},{"attributes":{"NORMAL":95,"POSITION":44},"indices":146,"material":0,"mode":4},{"attributes":{"NORMAL":96,"POSITION":45},"indices":147,"material":0,"mode":4},{"attributes":{"NORMAL":97,"POSITION":46},"indices":148,"material":0,"mode":4},{"attributes":{"NORMAL":98,"POSITION":47},"indices":149,"material":0,"mode":4},{"attributes":{"NORMAL":99,"POSITION":48},"indices":150,"material":0,"mode":4},{"attributes":{"NORMAL":100,"POSITION":49},"indices":151,"material":0,"mode":4},{"attributes":{"NORMAL":101,"POSITION":50},"indices":152,"material":0,"mode":4}]}],"nodes":[{"mesh":0,"name":"table"}],"scene":0,"scenes":[{"nodes":[0]}]}